<svg width="184" height="51" viewBox="0 0 184 51" fill="none" xmlns="http://www.w3.org/2000/svg">
<path d="M8.40219 42V17H0.682188V12.2H21.4822V17H13.8822V42H8.40219ZM24.3619 42V20.24H29.6019V42H24.3619ZM24.3619 17.8V12.2H29.6019V17.8H24.3619ZM34.44 42V20.24H39.36V24.52L38.96 23.76C39.4667 22.4533 40.2933 21.4667 41.44 20.8C42.6133 20.1067 43.9733 19.76 45.52 19.76C47.12 19.76 48.5333 20.1067 49.76 20.8C51.0133 21.4933 51.9867 22.4667 52.68 23.72C53.3733 24.9467 53.72 26.3733 53.72 28V42H48.48V29.24C48.48 28.28 48.2933 27.4533 47.92 26.76C47.5467 26.0667 47.0267 25.5333 46.36 25.16C45.72 24.76 44.96 24.56 44.08 24.56C43.2267 24.56 42.4667 24.76 41.8 25.16C41.1333 25.5333 40.6133 26.0667 40.24 26.76C39.8667 27.4533 39.68 28.28 39.68 29.24V42H34.44ZM68.7109 50.8C67.0843 50.8 65.5776 50.5333 64.1909 50C62.8043 49.4667 61.6043 48.72 60.5909 47.76C59.6043 46.8267 58.8843 45.72 58.4309 44.44L63.3109 42.6C63.6309 43.6133 64.2576 44.4267 65.1909 45.04C66.1509 45.68 67.3243 46 68.7109 46C69.7776 46 70.7109 45.8 71.5109 45.4C72.3376 45 72.9776 44.4133 73.4309 43.64C73.8843 42.8933 74.1109 41.9867 74.1109 40.92V35.96L75.1109 37.16C74.3643 38.4667 73.3643 39.4533 72.1109 40.12C70.8576 40.7867 69.4309 41.12 67.8309 41.12C65.8043 41.12 63.9909 40.6533 62.3909 39.72C60.7909 38.7867 59.5376 37.5067 58.6309 35.88C57.7243 34.2533 57.2709 32.4267 57.2709 30.4C57.2709 28.3467 57.7243 26.52 58.6309 24.92C59.5376 23.32 60.7776 22.0667 62.3509 21.16C63.9243 20.2267 65.7109 19.76 67.7109 19.76C69.3376 19.76 70.7643 20.1067 71.9909 20.8C73.2443 21.4667 74.2843 22.44 75.1109 23.72L74.3909 25.04V20.24H79.3509V40.92C79.3509 42.8133 78.8843 44.5067 77.9509 46C77.0443 47.4933 75.7909 48.6667 74.1909 49.52C72.6176 50.3733 70.7909 50.8 68.7109 50.8ZM68.4709 36.28C69.5909 36.28 70.5643 36.04 71.3909 35.56C72.2443 35.0533 72.9109 34.36 73.3909 33.48C73.8709 32.6 74.1109 31.5867 74.1109 30.44C74.1109 29.32 73.8576 28.32 73.3509 27.44C72.8709 26.5333 72.2043 25.8267 71.3509 25.32C70.5243 24.8133 69.5643 24.56 68.4709 24.56C67.3776 24.56 66.3909 24.8133 65.5109 25.32C64.6309 25.8267 63.9376 26.5333 63.4309 27.44C62.9509 28.32 62.7109 29.32 62.7109 30.44C62.7109 31.56 62.9509 32.56 63.4309 33.44C63.9376 34.32 64.6176 35.0133 65.4709 35.52C66.3509 36.0267 67.3509 36.28 68.4709 36.28ZM84.6847 42V12.2H89.8847L101.045 27.36H98.5647L109.485 12.2H114.685V42H109.205V18.4L111.325 18.92L100.005 34H99.3647L88.3247 18.92L90.1247 18.4V42H84.6847ZM130.268 42.48C128.028 42.48 126.068 41.9733 124.388 40.96C122.708 39.9467 121.401 38.5733 120.468 36.84C119.534 35.1067 119.068 33.1867 119.068 31.08C119.068 28.8933 119.534 26.96 120.468 25.28C121.428 23.5733 122.721 22.2267 124.348 21.24C126.001 20.2533 127.841 19.76 129.868 19.76C131.574 19.76 133.068 20.04 134.348 20.6C135.654 21.16 136.761 21.9333 137.668 22.92C138.574 23.9067 139.268 25.04 139.748 26.32C140.228 27.5733 140.468 28.9333 140.468 30.4C140.468 30.7733 140.441 31.16 140.388 31.56C140.361 31.96 140.294 32.3067 140.188 32.6H123.388V28.6H137.228L134.748 30.48C134.988 29.2533 134.921 28.16 134.548 27.2C134.201 26.24 133.614 25.48 132.788 24.92C131.988 24.36 131.014 24.08 129.868 24.08C128.774 24.08 127.801 24.36 126.948 24.92C126.094 25.4533 125.441 26.2533 124.988 27.32C124.561 28.36 124.401 29.6267 124.508 31.12C124.401 32.4533 124.574 33.64 125.028 34.68C125.508 35.6933 126.201 36.48 127.108 37.04C128.041 37.6 129.108 37.88 130.308 37.88C131.508 37.88 132.521 37.6267 133.348 37.12C134.201 36.6133 134.868 35.9333 135.348 35.08L139.588 37.16C139.161 38.2 138.494 39.12 137.588 39.92C136.681 40.72 135.601 41.3467 134.348 41.8C133.121 42.2533 131.761 42.48 130.268 42.48Z" fill="black"/>
<path opacity="0.4" d="M145 7.03125V15.4688C145 17.7979 146.872 19.6875 149.179 19.6875H157.536C159.843 19.6875 161.714 17.7979 161.714 15.4688V7.03125C161.714 4.70215 159.843 2.8125 157.536 2.8125H149.179C146.872 2.8125 145 4.70215 145 7.03125ZM145 29.5312V37.9688C145 40.2979 146.872 42.1875 149.179 42.1875H157.536C159.843 42.1875 161.714 40.2979 161.714 37.9688V29.5312C161.714 27.2021 159.843 25.3125 157.536 25.3125H149.179C146.872 25.3125 145 27.2021 145 29.5312ZM150.571 8.4375H156.143V14.0625H150.571V8.4375ZM150.571 30.9375H156.143V36.5625H150.571V30.9375ZM167.286 7.03125V15.4688C167.286 17.7979 169.157 19.6875 171.464 19.6875H179.821C182.128 19.6875 184 17.7979 184 15.4688V7.03125C184 4.70215 182.128 2.8125 179.821 2.8125H171.464C169.157 2.8125 167.286 4.70215 167.286 7.03125ZM172.857 8.4375H178.429V14.0625H172.857V8.4375Z" fill="#01A3A4"/>
<path d="M167.285 40.7812V26.7188C167.285 25.9453 167.912 25.3125 168.678 25.3125H174.249C175.016 25.3125 175.642 25.9453 175.642 26.7188C175.642 27.4922 176.269 28.125 177.035 28.125H179.821C180.587 28.125 181.214 27.4922 181.214 26.7188C181.214 25.9453 181.841 25.3125 182.607 25.3125C183.373 25.3125 183.999 25.9453 183.999 26.7188V35.1562C183.999 35.9297 183.373 36.5625 182.607 36.5625H177.035C176.269 36.5625 175.642 35.9297 175.642 35.1562C175.642 34.3828 175.016 33.75 174.249 33.75C173.483 33.75 172.857 34.3828 172.857 35.1562V40.7812C172.857 41.5547 172.23 42.1875 171.464 42.1875H168.678C167.912 42.1875 167.285 41.5547 167.285 40.7812ZM178.428 40.7812C178.428 41.1542 178.281 41.5119 178.02 41.7756C177.759 42.0393 177.405 42.1875 177.035 42.1875C176.666 42.1875 176.311 42.0393 176.05 41.7756C175.789 41.5119 175.642 41.1542 175.642 40.7812C175.642 40.4083 175.789 40.0506 176.05 39.7869C176.311 39.5232 176.666 39.375 177.035 39.375C177.405 39.375 177.759 39.5232 178.02 39.7869C178.281 40.0506 178.428 40.4083 178.428 40.7812ZM183.999 40.7812C183.999 41.1542 183.853 41.5119 183.591 41.7756C183.33 42.0393 182.976 42.1875 182.607 42.1875C182.237 42.1875 181.883 42.0393 181.622 41.7756C181.36 41.5119 181.214 41.1542 181.214 40.7812C181.214 40.4083 181.36 40.0506 181.622 39.7869C181.883 39.5232 182.237 39.375 182.607 39.375C182.976 39.375 183.33 39.5232 183.591 39.7869C183.853 40.0506 183.999 40.4083 183.999 40.7812Z" fill="#01A3A4"/>
</svg>
